<?xml version="1.0" encoding="UTF-8"?>
<!DOCTYPE svg PUBLIC "-//W3C//DTD SVG 1.1//EN" "http://www.w3.org/Graphics/SVG/1.1/DTD/svg11.dtd">
<svg version="1.1" xmlns="http://www.w3.org/2000/svg" xmlns:xlink="http://www.w3.org/1999/xlink" x="0" y="0" width="64" height="64" viewBox="0, 0, 64, 64">
  <g id="Layer_1">
    <g>
      <path d="M23.878,28.671 L47.769,28.671 C52.863,28.671 51.96,32.738 51.96,37.755 L51.799,50.222 C51.799,55.239 47.83,54.865 42.736,54.865 L23.878,54.865 C18.784,54.865 14.479,55.239 14.479,50.222 L14.654,37.755 C14.654,32.738 14.115,28.671 19.21,28.671 z" fill="#000000"/>
      <path d="M23.878,28.671 L47.769,28.671 C52.863,28.671 51.96,32.738 51.96,37.755 L51.799,50.222 C51.799,55.239 47.83,54.865 42.736,54.865 L23.878,54.865 C18.784,54.865 14.479,55.239 14.479,50.222 L14.654,37.755 C14.654,32.738 14.115,28.671 19.21,28.671 z" fill-opacity="0" stroke="#000000" stroke-width="2"/>
    </g>
    <path d="M33.489,12.026 C41.085,12.026 47.857,15.073 47.857,28.233" fill-opacity="0" stroke="#000000" stroke-width="4"/>
    <path d="M19.21,28.671 C19.21,15.269 25.264,12.026 33.489,12.026" fill-opacity="0" stroke="#000000" stroke-width="4"/>
    <path d="M54.077,12.552 L54.077,12.552" fill-opacity="0" stroke="#000000" stroke-width="2"/>
  </g>
</svg>
