<?xml version="1.0" encoding="UTF-8"?>
<!DOCTYPE svg PUBLIC "-//W3C//DTD SVG 1.1//EN" "http://www.w3.org/Graphics/SVG/1.1/DTD/svg11.dtd">
<svg version="1.1" xmlns="http://www.w3.org/2000/svg" xmlns:xlink="http://www.w3.org/1999/xlink" x="0" y="0" width="64" height="64" viewBox="0, 0, 64, 64">
  <g id="Layer_1">
    <path d="M27.071,49.826 C16.391,49.826 7.733,41.168 7.733,30.488 C7.733,19.808 16.391,11.15 27.071,11.15 C37.751,11.15 46.409,19.808 46.409,30.488 C46.409,41.168 37.751,49.826 27.071,49.826 z" fill-opacity="0" stroke="#000000" stroke-width="2"/>
    <path d="M45.292,42.675 L57.556,53.535 C58.887,54.713 58.984,56.776 57.773,58.143 L57.773,58.143 C56.563,59.51 54.503,59.664 53.172,58.485 L40.909,47.626 C39.578,46.448 39.481,44.385 40.691,43.018 L40.691,43.018 C41.902,41.651 43.962,41.497 45.292,42.675 z" fill="#000000"/>
  </g>
</svg>
